<?xml version="1.0" encoding="UTF-8" standalone="no"?>
<svg
   xmlns:dc="http://purl.org/dc/elements/1.1/"
   xmlns:cc="http://creativecommons.org/ns#"
   xmlns:rdf="http://www.w3.org/1999/02/22-rdf-syntax-ns#"
   xmlns:svg="http://www.w3.org/2000/svg"
   xmlns="http://www.w3.org/2000/svg"
   id="svg8"
   version="1.1"
   viewBox="0 0 12.435416 12.435416"
   height="47"
   width="47">
  <defs
     id="defs2" />
  <metadata
     id="metadata5">
    <rdf:RDF>
      <cc:Work
         rdf:about="">
        <dc:format>image/svg+xml</dc:format>
        <dc:type
           rdf:resource="http://purl.org/dc/dcmitype/StillImage" />
        <dc:title></dc:title>
      </cc:Work>
    </rdf:RDF>
  </metadata>
  <g
     transform="translate(0,-284.56459)"
     id="layer1">
    <circle
       r="6.2177081"
       cy="290.79117"
       cx="6.2265229"
       id="path815"
       style="opacity:1;fill:#ffffff;fill-opacity:0;stroke:none;stroke-width:0.57800001;stroke-linecap:round;stroke-linejoin:round;stroke-miterlimit:4;stroke-dasharray:none;stroke-dashoffset:0;stroke-opacity:1" />
    <circle
       r="6.2177081"
       cy="290.78229"
       cx="6.2177081"
       id="path1008"
       style="opacity:1;fill:#ffffff;fill-opacity:1;stroke:none;stroke-width:0.57800001;stroke-linecap:round;stroke-linejoin:round;stroke-miterlimit:4;stroke-dasharray:none;stroke-dashoffset:0;stroke-opacity:1" />
    <g
       transform="matrix(0.05447537,0,0,0.05447537,2.4067491,286.04913)"
       id="g1219"
       style="fill:none">
      <path
         style="fill:#00433b"
         d="m 126.717,87.9802 c 0,8.6968 -1.963,16.9328 -5.473,24.2978 l -7.635,-4.763 -3.578,-2.231 c 2.302,-5.3048 3.578,-11.1572 3.578,-17.3038 0,-6.1466 -1.276,-11.999 -3.578,-17.3038 l 3.578,-2.2314 7.635,-4.7625 c 3.51,7.3645 5.473,15.6009 5.473,24.2977 z"
         id="path1205" />
      <path
         style="fill:#000000"
         d="m 113.609,107.515 -3.578,-2.231 -13.7227,-8.5552 c -0.8002,-0.4986 -1.1907,-1.4576 -0.9613,-2.3704 0.5107,-2.0407 0.7838,-4.1767 0.7838,-6.3755 0,-2.1987 -0.2704,-4.3348 -0.7838,-6.3755 -0.2294,-0.9154 0.1611,-1.8717 0.9613,-2.3703 l 13.7227,-8.5552 11.213,-6.994 7.699,-4.8007 c 1.991,-1.2424 2.654,-3.8389 1.475,-5.866 -0.394,-0.6784 -0.801,-1.3459 -1.216,-2.008 -1.163,-1.8527 -2.411,-3.6482 -3.738,-5.3783 C 112.893,29.2466 93.1978,18.5827 70.9954,18.2448 70.3946,18.2366 69.9112,17.7544 69.9112,17.155 V 7.33292 c 0,-3.61006 -2.9357,-6.538975 -6.5542,-6.538975 -3.6185,0 -6.5542,2.928915 -6.5542,6.538975 V 18.5663 c 0,0.5204 -0.3687,0.9645 -0.8794,1.0681 -3.6976,0.7492 -7.2915,1.79 -10.7516,3.0978 -0.7128,0.2697 -1.4774,-0.2561 -1.4774,-1.019 V 7.33292 c 0,-3.61006 -2.9358,-6.538975 -6.5543,-6.538975 -3.6184,0 -6.5542,2.928915 -6.5542,6.538975 V 29.1676 c 0,0.7139 -0.355,1.3787 -0.9394,1.7901 C 11.7753,43.5425 0.081535,64.2792 0.00233823,87.7432 -0.126015,126.236 31.8476,157.729 70.4301,157.729 h 51.9179 c 2.414,0 4.369,-1.951 4.369,-4.359 v -34.659 c 0,-1.88 -0.969,-3.627 -2.567,-4.621 l -2.906,-1.812 z m -2.185,37.136 H 70.4192 c -31.2746,0 -57.3357,-25.526 -57.3057,-56.7253 0.0136,-15.5791 6.3303,-29.6842 16.5412,-39.9204 0.3441,-0.346 0.9367,-0.1035 0.9367,0.3842 v 6.8959 c 0,3.61 2.9357,6.5389 6.5542,6.5389 3.6185,0 6.5542,-2.9289 6.5542,-6.5389 V 39.0387 c 0,-0.8309 0.4752,-1.5938 1.2235,-1.9589 7.5428,-3.6945 16.025,-5.7707 24.9934,-5.7707 17.0355,0 32.3203,7.4817 42.7303,19.3309 0.888,1.0108 0.656,2.5747 -0.486,3.2885 l -9.083,5.6644 -12.4091,7.7378 c -1.5375,0.959 -3.5065,0.8664 -4.9539,-0.2234 -4.4268,-3.3431 -9.9514,-5.3129 -15.9403,-5.2802 -14.2036,0.0762 -25.8646,11.5957 -26.0722,25.7662 -0.213,14.6227 11.6065,26.5457 26.2142,26.5457 5.9452,0 11.4261,-1.973 15.8229,-5.302 1.4365,-1.087 3.4,-1.158 4.9293,-0.205 l 12.4091,7.738 9.25,5.768 c 0.797,0.499 1.283,1.371 1.283,2.311 v 18.025 c 0,1.205 -0.977,2.18 -2.184,2.18 z M 83.0142,87.5225 v 0.9154 c -0.082,2.3731 -0.7975,4.5855 -1.9827,6.4736 -1.2152,1.9399 -2.9303,3.5392 -4.9621,4.6182 -1.8351,0.9753 -3.9298,1.5283 -6.1555,1.5283 -7.2396,0 -13.1084,-5.8549 -13.1084,-13.0778 0,-7.2228 5.8688,-13.0779 13.1084,-13.0779 2.2257,0 4.3204,0.5531 6.1555,1.5285 2.0318,1.0789 3.7469,2.6782 4.9621,4.6181 1.1852,1.8881 1.9007,4.1005 1.9827,6.4736 z"
         id="path1207" />
    </g>
  </g>
</svg>
